<svg xmlns="http://www.w3.org/2000/svg" width="379" height="467" viewBox="0 0 379 467">
<g>
<path d="M 177.33 453.95 C173.86,456.69 171.72,456.47 156.50,451.82 C143.10,447.73 139.39,445.51 136.41,439.80 C134.57,436.27 134.64,432.21 136.93,410.00 C137.98,399.83 139.57,380.92 140.47,368.00 C142.66,336.23 143.20,325.32 148.41,322.20 C151.12,320.58 155.11,321.07 161.25,321.83 C161.73,321.89 162.22,321.95 162.73,322.01 C172.87,323.25 173.68,323.52 176.66,326.64 C178.74,328.81 180.20,331.70 180.91,335.03 C182.36,341.77 182.40,443.02 180.96,448.20 C180.39,450.24 178.76,452.83 177.33,453.95 ZM 166.45 141.59 C151.09,144.11 146.41,142.88 144.10,135.73 C143.52,133.96 142.35,121.93 141.48,109.00 C140.62,96.07 139.27,78.53 138.47,70.00 L 138.36 68.85 C134.90,31.74 134.61,28.69 135.56,26.09 C135.66,25.83 135.76,25.57 135.88,25.29 C138.46,19.07 142.66,16.38 156.00,12.44 C174.34,7.01 178.69,7.62 180.99,15.90 C182.37,20.88 182.34,122.33 180.95,128.80 C180.37,131.49 178.66,135.18 177.15,136.99 C174.72,139.90 173.46,140.45 166.45,141.59 ZM 178.65 294.20 C176.54,297.33 176.10,297.51 169.96,297.63 C161.82,297.79 154.16,296.79 151.26,295.18 C150.03,294.50 148.24,292.49 147.29,290.72 C145.72,287.79 145.55,282.58 145.45,232.50 C145.34,181.02 145.45,177.26 147.17,173.78 C148.18,171.74 149.87,169.60 150.93,169.04 C151.99,168.47 157.40,167.49 162.96,166.86 C174.62,165.53 176.93,166.13 179.70,171.21 C181.36,174.24 181.52,178.72 181.81,227.50 C181.98,256.65 181.84,282.84 181.50,285.70 C181.15,288.56 179.87,292.38 178.65,294.20 ZM 113.62 148.88 C100.23,151.42 98.35,151.17 93.69,146.24 C91.18,143.58 90.58,141.50 88.00,126.38 C84.35,105.02 80.10,85.24 75.46,68.00 C73.46,60.58 71.59,51.91 71.29,48.75 C70.77,43.13 70.84,42.92 74.63,39.17 C77.95,35.88 80.08,34.90 89.65,32.25 C100.51,29.25 105.05,29.06 108.89,31.43 C112.37,33.58 115.25,48.38 120.40,90.50 C124.58,124.75 125.43,136.53 123.96,140.25 C121.86,145.58 119.15,147.83 113.62,148.88 ZM 106.47 433.58 C101.97,435.46 101.32,435.38 88.51,431.49 C79.25,428.67 76.99,427.57 74.17,424.49 C71.11,421.15 70.86,420.40 71.22,415.67 C71.44,412.83 73.47,403.52 75.73,395.00 C80.73,376.10 84.20,359.87 88.00,337.61 C90.73,321.65 91.06,320.53 94.14,317.36 C96.90,314.51 98.09,314.00 101.95,314.01 C109.29,314.02 118.12,315.80 120.22,317.70 C124.64,321.69 125.27,325.44 124.02,340.00 C121.21,372.59 113.86,424.45 111.36,429.27 C110.54,430.86 108.34,432.80 106.47,433.58 ZM 122.86 290.47 C119.71,293.11 118.48,293.25 108.78,292.00 C101.89,291.12 98.84,289.28 96.67,284.71 C95.21,281.64 95.14,278.61 95.97,256.64 C96.56,241.27 96.56,222.75 95.98,207.42 C94.71,174.28 95.12,173.38 111.94,172.29 C120.49,171.74 121.20,171.84 123.50,174.00 C128.35,178.56 128.49,180.15 128.49,232.00 C128.49,284.88 128.40,285.80 122.86,290.47 ZM 67.00 155.00 C65.91,155.58 61.52,156.33 57.24,156.66 C49.86,157.23 49.30,157.13 46.30,154.60 C42.78,151.64 41.54,148.65 36.96,132.00 C32.81,116.94 23.66,92.49 16.62,77.63 C13.53,71.09 11.00,64.70 11.00,63.42 C11.00,59.59 13.09,56.18 16.39,54.64 C21.84,52.10 33.09,49.00 36.86,49.00 C41.72,49.01 46.49,52.07 48.85,56.71 C55.15,69.10 72.00,133.10 72.00,144.66 C72.00,148.81 69.71,153.55 67.00,155.00 ZM 44.12 412.92 C40.28,415.65 34.63,415.51 25.02,412.46 C15.46,409.43 13.47,408.34 12.11,405.34 C10.22,401.19 10.82,398.63 16.50,386.63 C25.03,368.63 33.34,345.94 38.55,326.50 C41.71,314.72 43.01,311.93 46.73,308.98 C49.20,307.02 50.28,306.84 56.62,307.36 C60.54,307.69 64.91,308.39 66.33,308.93 C69.49,310.14 72.00,314.74 72.00,319.34 C72.00,330.83 55.16,394.88 48.91,407.17 C47.88,409.18 45.73,411.77 44.12,412.92 ZM 73.35 285.17 C70.83,287.45 67.57,287.91 60.54,287.00 C55.58,286.35 54.10,285.67 51.67,282.95 L 48.75 279.69 L 49.62 267.09 C50.75,250.90 50.75,213.10 49.62,196.91 L 48.75 184.31 L 51.62 181.13 C54.29,178.18 55.10,177.90 62.76,177.32 C71.77,176.65 73.61,177.41 76.53,183.06 C79.57,188.93 80.93,234.54 78.93,263.11 C77.86,278.31 76.94,281.94 73.35,285.17 Z" fill="rgb(112,167,98)"/>
<path d="M 237.16 141.91 C232.72,144.29 213.29,141.56 209.54,138.04 C203.93,132.77 203.91,132.55 204.22,70.83 L 204.50 14.16 L 206.88 11.63 C208.18,10.24 210.45,8.84 211.92,8.52 C214.66,7.92 236.81,13.82 242.12,16.56 C245.64,18.38 249.59,23.60 250.42,27.53 C250.77,29.20 250.16,39.77 249.05,51.03 C246.84,73.39 244.48,102.96 243.44,121.00 C242.73,133.37 240.74,140.00 237.16,141.91 ZM 227.40 452.39 C212.39,456.87 210.84,456.84 206.50,452.01 C204.56,449.85 204.49,448.18 204.22,393.15 C203.91,330.85 203.91,330.77 209.96,325.69 C213.56,322.66 232.39,319.94 236.58,321.85 C240.66,323.71 242.70,329.99 243.44,343.00 C244.48,361.04 246.84,390.61 249.05,412.97 C250.16,424.23 250.77,434.80 250.42,436.47 C249.60,440.37 245.65,445.62 242.20,447.39 C240.71,448.15 234.05,450.40 227.40,452.39 ZM 234.11 295.44 C232.48,296.29 226.81,297.20 220.88,297.58 C210.84,298.21 210.43,298.15 208.32,295.86 C207.12,294.56 205.65,292.23 205.07,290.68 C203.34,286.13 203.61,176.85 205.36,172.72 C208.03,166.41 209.79,165.67 220.21,166.47 C232.29,167.41 235.92,168.68 238.32,172.80 C240.15,175.94 240.24,178.69 240.24,231.87 L 240.24 234.71 C240.24,283.67 240.24,291.00 236.65,293.94 C235.95,294.52 235.11,294.93 234.11,295.44 ZM 290.84 147.64 C287.50,150.68 285.57,150.91 276.00,149.43 C268.62,148.29 267.14,147.72 264.77,145.07 C263.27,143.39 261.73,140.77 261.35,139.26 C259.74,132.87 269.68,48.08 273.30,37.28 C276.07,29.00 282.63,27.85 298.66,32.84 C309.35,36.17 313.22,39.03 314.63,44.68 C315.03,46.27 313.02,56.31 309.18,71.85 C302.77,97.82 300.28,109.70 297.06,129.73 C294.94,142.89 294.43,144.37 290.84,147.64 ZM 295.82 431.87 C289.59,433.59 284.27,434.94 284.00,434.86 C283.73,434.79 282.49,434.53 281.26,434.30 C280.03,434.06 277.73,432.57 276.15,431.00 C272.97,427.81 272.35,425.33 269.08,402.50 C265.01,374.12 261.00,337.60 261.00,328.94 C261.00,323.64 264.02,318.25 268.09,316.29 C269.47,315.62 274.31,314.77 278.84,314.39 C292.32,313.27 293.97,315.07 297.06,334.29 C300.28,354.30 302.77,366.18 309.18,392.15 C313.41,409.29 315.05,417.65 314.56,419.60 C313.17,425.14 308.08,428.47 295.82,431.87 ZM 283.79 290.41 C279.21,292.27 267.67,293.02 264.92,291.63 C260.88,289.58 258.64,285.35 257.85,278.25 C256.89,269.62 256.89,195.83 257.85,186.27 C259.11,173.74 263.03,170.58 275.40,172.11 C285.23,173.33 286.73,174.13 289.04,179.35 C290.72,183.16 290.81,184.90 289.97,198.52 C289.47,206.76 289.05,221.82 289.05,232.00 C289.05,242.18 289.47,257.24 289.97,265.48 C290.81,279.22 290.73,280.82 288.99,284.77 C287.63,287.82 286.13,289.45 283.79,290.41 ZM 361.07 412.51 C356.44,413.88 351.04,415.00 349.07,415.00 C345.00,414.99 339.80,412.17 337.64,408.80 C332.88,401.34 320.41,357.40 315.00,328.98 C311.91,312.79 314.44,308.68 328.29,307.42 C340.09,306.35 342.27,308.40 346.52,324.50 C352.15,345.89 359.96,367.10 370.44,389.54 C372.95,394.90 375.00,400.34 375.00,401.63 C375.00,406.05 370.19,409.81 361.07,412.51 ZM 340.07 154.23 C337.52,156.51 336.12,156.97 332.23,156.84 C314.49,156.24 311.60,152.40 315.11,134.10 C318.38,117.00 325.49,89.55 331.10,72.42 C335.68,58.39 336.76,56.05 340.19,52.75 C345.02,48.10 348.84,47.87 361.07,51.49 C370.19,54.19 375.00,57.95 375.00,62.38 C375.00,63.67 372.82,69.40 370.15,75.11 C359.72,97.46 353.25,115.06 346.48,139.48 C343.73,149.41 342.63,151.94 340.07,154.23 ZM 333.96 283.48 C332.01,285.44 329.95,286.20 324.96,286.77 C316.17,287.79 314.56,287.41 311.13,283.50 C307.00,278.79 306.50,273.21 306.50,232.00 C306.50,190.39 306.98,185.23 311.30,180.31 L 314.43 176.74 L 322.84 177.27 C330.23,177.73 331.57,178.11 333.87,180.43 C336.45,183.02 336.49,183.27 336.03,193.79 C335.42,207.62 335.42,256.38 336.03,270.21 C336.49,280.64 336.43,281.00 333.96,283.48 Z" fill="rgb(142,155,171)"/>
<path d="M 0.00 233.50 L 0.00 0.00 L 189.50 0.00 L 379.00 0.00 L 379.00 233.50 L 379.00 467.00 L 189.50 467.00 L 0.00 467.00 L 0.00 233.50 ZM 177.33 453.95 C178.76,452.83 180.39,450.24 180.96,448.20 C182.40,443.02 182.36,341.77 180.91,335.03 C180.20,331.70 178.74,328.81 176.66,326.64 C173.68,323.52 172.87,323.25 162.73,322.01 C143.28,319.64 143.89,318.39 140.47,368.00 C139.57,380.92 137.98,399.83 136.93,410.00 C134.64,432.21 134.57,436.27 136.41,439.80 C139.39,445.51 143.10,447.73 156.50,451.82 C171.72,456.47 173.86,456.69 177.33,453.95 ZM 227.40 452.39 C234.05,450.40 240.71,448.15 242.20,447.39 C245.65,445.62 249.60,440.37 250.42,436.47 C250.77,434.80 250.16,424.23 249.05,412.97 C246.84,390.61 244.48,361.04 243.44,343.00 C242.70,329.99 240.66,323.71 236.58,321.85 C232.39,319.94 213.56,322.66 209.96,325.69 C203.91,330.77 203.91,330.85 204.22,393.15 C204.49,448.18 204.56,449.85 206.50,452.01 C210.84,456.84 212.39,456.87 227.40,452.39 ZM 106.47 433.58 C108.34,432.80 110.54,430.86 111.36,429.27 C113.86,424.45 121.21,372.59 124.02,340.00 C125.27,325.44 124.64,321.69 120.22,317.70 C118.12,315.80 109.29,314.02 101.95,314.01 C98.09,314.00 96.90,314.51 94.14,317.36 C91.06,320.53 90.73,321.65 88.00,337.61 C84.20,359.87 80.73,376.10 75.73,395.00 C73.47,403.52 71.44,412.83 71.22,415.67 C70.86,420.40 71.11,421.15 74.17,424.49 C76.99,427.57 79.25,428.67 88.51,431.49 C101.32,435.38 101.97,435.46 106.47,433.58 ZM 295.82 431.87 C308.08,428.47 313.17,425.14 314.56,419.60 C315.05,417.65 313.41,409.29 309.18,392.15 C302.77,366.18 300.28,354.30 297.06,334.29 C293.97,315.07 292.32,313.27 278.84,314.39 C274.31,314.77 269.47,315.62 268.09,316.29 C264.02,318.25 261.00,323.64 261.00,328.94 C261.00,337.60 265.01,374.12 269.08,402.50 C272.35,425.33 272.97,427.81 276.15,431.00 C277.73,432.57 280.03,434.06 281.26,434.30 C282.49,434.53 283.73,434.79 284.00,434.86 C284.27,434.94 289.59,433.59 295.82,431.87 ZM 44.12 412.92 C45.73,411.77 47.88,409.18 48.91,407.17 C55.16,394.88 72.00,330.83 72.00,319.34 C72.00,314.74 69.49,310.14 66.33,308.93 C64.91,308.39 60.54,307.69 56.62,307.36 C50.28,306.84 49.20,307.02 46.73,308.98 C43.01,311.93 41.71,314.72 38.55,326.50 C33.34,345.94 25.03,368.63 16.50,386.63 C10.82,398.63 10.22,401.19 12.11,405.34 C13.47,408.34 15.46,409.43 25.02,412.46 C34.63,415.51 40.28,415.65 44.12,412.92 ZM 361.07 412.51 C370.19,409.81 375.00,406.05 375.00,401.63 C375.00,400.34 372.95,394.90 370.44,389.54 C359.96,367.10 352.15,345.89 346.52,324.50 C342.27,308.40 340.09,306.35 328.29,307.42 C314.44,308.68 311.91,312.79 315.00,328.98 C320.41,357.40 332.88,401.34 337.64,408.80 C339.80,412.17 345.00,414.99 349.07,415.00 C351.04,415.00 356.44,413.88 361.07,412.51 ZM 178.65 294.20 C179.87,292.38 181.15,288.56 181.50,285.70 C181.84,282.84 181.98,256.65 181.81,227.50 C181.52,178.72 181.36,174.24 179.70,171.21 C176.93,166.13 174.62,165.53 162.96,166.86 C157.40,167.49 151.99,168.47 150.93,169.04 C149.87,169.60 148.18,171.74 147.17,173.78 C145.45,177.26 145.34,181.02 145.45,232.50 C145.55,282.58 145.72,287.79 147.29,290.72 C148.24,292.49 150.03,294.50 151.26,295.18 C154.16,296.79 161.82,297.79 169.96,297.63 C176.10,297.51 176.54,297.33 178.65,294.20 ZM 234.11 295.44 C240.34,292.22 240.24,293.25 240.24,231.87 C240.24,178.69 240.15,175.94 238.32,172.80 C235.92,168.68 232.29,167.41 220.21,166.47 C209.79,165.67 208.03,166.41 205.36,172.72 C203.61,176.85 203.34,286.13 205.07,290.68 C205.65,292.23 207.12,294.56 208.32,295.86 C210.43,298.15 210.84,298.21 220.88,297.58 C226.81,297.20 232.48,296.29 234.11,295.44 ZM 122.86 290.47 C128.40,285.80 128.49,284.88 128.49,232.00 C128.49,180.15 128.35,178.56 123.50,174.00 C121.20,171.84 120.49,171.74 111.94,172.29 C95.12,173.38 94.71,174.28 95.98,207.42 C96.56,222.75 96.56,241.27 95.97,256.64 C95.14,278.61 95.21,281.64 96.67,284.71 C98.84,289.28 101.89,291.12 108.78,292.00 C118.48,293.25 119.71,293.11 122.86,290.47 ZM 283.79 290.41 C286.13,289.45 287.63,287.82 288.99,284.77 C290.73,280.82 290.81,279.22 289.97,265.48 C289.47,257.24 289.05,242.18 289.05,232.00 C289.05,221.82 289.47,206.76 289.97,198.52 C290.81,184.90 290.72,183.16 289.04,179.35 C286.73,174.13 285.23,173.33 275.40,172.11 C263.03,170.58 259.11,173.74 257.85,186.27 C256.89,195.83 256.89,269.62 257.85,278.25 C258.64,285.35 260.88,289.58 264.92,291.63 C267.67,293.02 279.21,292.27 283.79,290.41 ZM 73.35 285.17 C76.94,281.94 77.86,278.31 78.93,263.11 C80.93,234.54 79.57,188.93 76.53,183.06 C73.61,177.41 71.77,176.65 62.76,177.32 C55.10,177.90 54.29,178.18 51.62,181.13 L 48.75 184.31 L 49.62 196.91 C50.75,213.10 50.75,250.90 49.62,267.09 L 48.75 279.69 L 51.67 282.95 C54.10,285.67 55.58,286.35 60.54,287.00 C67.57,287.91 70.83,287.45 73.35,285.17 ZM 333.96 283.48 C336.43,281.00 336.49,280.64 336.03,270.21 C335.42,256.38 335.42,207.62 336.03,193.79 C336.49,183.27 336.45,183.02 333.87,180.43 C331.57,178.11 330.23,177.73 322.84,177.27 L 314.43 176.74 L 311.30 180.31 C306.98,185.23 306.50,190.39 306.50,232.00 C306.50,273.21 307.00,278.79 311.13,283.50 C314.56,287.41 316.17,287.79 324.96,286.77 C329.95,286.20 332.01,285.44 333.96,283.48 ZM 67.00 155.00 C69.71,153.55 72.00,148.81 72.00,144.66 C72.00,133.10 55.15,69.10 48.85,56.71 C46.49,52.07 41.72,49.01 36.86,49.00 C33.09,49.00 21.84,52.10 16.39,54.64 C13.09,56.18 11.00,59.59 11.00,63.42 C11.00,64.70 13.53,71.09 16.62,77.63 C23.66,92.49 32.81,116.94 36.96,132.00 C41.54,148.65 42.78,151.64 46.30,154.60 C49.30,157.13 49.86,157.23 57.24,156.66 C61.52,156.33 65.91,155.58 67.00,155.00 ZM 340.07 154.23 C342.63,151.94 343.73,149.41 346.48,139.48 C353.25,115.06 359.72,97.46 370.15,75.11 C372.82,69.40 375.00,63.67 375.00,62.38 C375.00,57.95 370.19,54.19 361.07,51.49 C348.84,47.87 345.02,48.10 340.19,52.75 C336.76,56.05 335.68,58.39 331.10,72.42 C325.49,89.55 318.38,117.00 315.11,134.10 C311.60,152.40 314.49,156.24 332.23,156.84 C336.12,156.97 337.52,156.51 340.07,154.23 ZM 113.62 148.88 C119.15,147.83 121.86,145.58 123.96,140.25 C125.43,136.53 124.58,124.75 120.40,90.50 C115.25,48.38 112.37,33.58 108.89,31.43 C105.05,29.06 100.51,29.25 89.65,32.25 C80.08,34.90 77.95,35.88 74.63,39.17 C70.84,42.92 70.77,43.13 71.29,48.75 C71.59,51.91 73.46,60.58 75.46,68.00 C80.10,85.24 84.35,105.02 88.00,126.38 C90.58,141.50 91.18,143.58 93.69,146.24 C98.35,151.17 100.23,151.42 113.62,148.88 ZM 290.84 147.64 C294.43,144.37 294.94,142.89 297.06,129.73 C300.28,109.70 302.77,97.82 309.18,71.85 C313.02,56.31 315.03,46.27 314.63,44.68 C313.22,39.03 309.35,36.17 298.66,32.84 C282.63,27.85 276.07,29.00 273.30,37.28 C269.68,48.08 259.74,132.87 261.35,139.26 C261.73,140.77 263.27,143.39 264.77,145.07 C267.14,147.72 268.62,148.29 276.00,149.43 C285.57,150.91 287.50,150.68 290.84,147.64 ZM 166.45 141.59 C173.46,140.45 174.72,139.90 177.15,136.99 C178.66,135.18 180.37,131.49 180.95,128.80 C182.34,122.33 182.37,20.88 180.99,15.90 C178.69,7.62 174.34,7.01 156.00,12.44 C142.66,16.38 138.46,19.07 135.88,25.29 C134.57,28.44 134.55,28.02 138.47,70.00 C139.27,78.53 140.62,96.07 141.48,109.00 C142.35,121.93 143.52,133.96 144.10,135.73 C146.41,142.88 151.09,144.11 166.45,141.59 ZM 237.16 141.91 C240.74,140.00 242.73,133.37 243.44,121.00 C244.48,102.96 246.84,73.39 249.05,51.03 C250.16,39.77 250.77,29.20 250.42,27.53 C249.59,23.60 245.64,18.38 242.12,16.56 C236.81,13.82 214.66,7.92 211.92,8.52 C210.45,8.84 208.18,10.24 206.88,11.63 L 204.50 14.16 L 204.22 70.83 C203.91,132.55 203.93,132.77 209.54,138.04 C213.29,141.56 232.72,144.29 237.16,141.91 Z" fill="rgb(253,254,253)"/>
</g>
</svg>